<svg xmlns="http://www.w3.org/2000/svg" xmlns:xlink="http://www.w3.org/1999/xlink" version="1.1" x="0px" y="0px" viewBox="0 0 200 85" enable-background="new 0 0 200 200" xml:space="preserve"><g><path fill="#000000" d="M20.2728004,38.5198822c3.0585976-0.8086891,5.1223106-2.5977707,5.4501934-4.9522591   c0.2311935-1.6601944-0.4314384-3.2649078-1.7544727-4.6243343c1.1073589-1.3385544,2.0695992-3.0719776,2.8936749-5.2146282   c2.7290211-7.0960274-2.7661266-18.332859-3.0014229-18.8077354c-0.4111919-0.8298736-1.3780689-1.2205491-2.2512913-0.9094357   c-0.872509,0.3118272-1.3736095,1.2273283-1.1657829,2.1299853c0.4664917,2.0275893-1.7592907,6.2311883-3.90979,9.4700508   c-0.1796398-3.2153149-1.2285776-5.4095201-1.2967224-5.548665c-0.3533926-0.7224827-1.1374197-1.1299276-1.9310799-1.0007725   c-0.7938385,0.1277275-1.4107141,0.7595882-1.5197105,1.5559244c-0.2848902,2.0846739-0.9315567,4.2492666-3.7089214,5.9607477   c-1.5239921,0.9386921-2.4807019,2.3212204-2.7666621,3.9984493c-0.3604383,2.1140194,0.4045901,4.3671837,1.3087635,6.1527863   c-1.5120397,0.9434185-2.4872127,2.2483025-2.7034223,3.8010597c-0.4043224,2.9030418,1.9193952,5.6383057,5.7417727,7.1841507   L7.5799427,52.6372337c-0.0668969,0.4798737,0.0597606,0.9665222,0.3517861,1.3529167   c0.292026,0.3867493,0.7256942,0.6414909,1.205565,0.70821l4.9605112,0.690731   c0.0854483,0.0117722,0.1701841,0.0178375,0.2542067,0.0178375c0.7471895,0,1.4092865-0.4624786,1.6850786-1.1439323   l10.0728321,40.4466209c0.2028313,0.8141785,0.933876,1.3853836,1.7726688,1.3853836h15.1776619   c0.0023193,0,0.0046387,0,0.0073128,0c1.0088005,0,1.8267212-0.8177414,1.8267212-1.8267212   c0-0.3214645-0.0829506-0.6232986-0.2285194-0.8855362L20.2728004,38.5198822z"/><path fill="#000000" d="M95.0013885,44.6785088c-0.8662643-0.3585625-1.8629303-0.0035667-2.3074799,0.8216705   l-8.8796692,16.4908829c-0.5964508-0.3380508-1.2117233-0.6464882-1.8481293-0.9154129L79.9591293,37.018055   c-0.0790329-0.9465408-0.8705521-1.6747322-1.8204803-1.6747322s-1.7414474,0.7281914-1.8204803,1.6747322l-1.8912964,22.6715889   c-0.8803558,0.0293007-1.7443008,0.1226883-2.5884476,0.2754364L59.7840271,37.6509857   c-0.4536476-0.8395081-1.4776115-1.1880798-2.3488693-0.800972c-0.8721542,0.3874626-1.2988663,1.3810997-0.9797249,2.2805443   l8.4181709,23.7188759c-0.7675247,0.5316505-1.4902763,1.1224785-2.1644135,1.7645493l-16.2753906-13.659687   c-0.7255135-0.609024-1.7962151-0.5629997-2.4660721,0.1077499c-0.6696815,0.6696777-0.7164192,1.7403793-0.1075706,2.4660721   l14.57827,17.3696404c-0.2486763,0.6174927-0.4636383,1.2515869-0.6430092,1.9007492l-17.9804497-5.3940887   c-0.8976631-0.2704391-1.8536568,0.1844559-2.2125778,1.0507202c-0.3585663,0.8659134-0.0035706,1.8627548,0.8216667,2.3073044   l19.0655098,10.2660294c1.6217499,8.2019653,8.8680687,14.4064789,17.5388374,14.4064789   c9.8592987,0,17.8802795-8.0208054,17.8802795-17.8801041c0-3.6977692-1.1283188-7.1369629-3.0586853-9.9914398   l6.2019348-20.6724968C96.3213043,45.9932518,95.8672943,45.037075,95.0013885,44.6785088z"/></g></svg>
