<svg xmlns="http://www.w3.org/2000/svg" xmlns:xlink="http://www.w3.org/1999/xlink" version="1.1" x="0px" y="0px" viewBox="0 0 64 80" style="enable-background:new 0 0 64 64;" xml:space="preserve"><path d="M32,2C16.01,2,3,15.01,3,31c0,9.295,4.323,17.783,11.677,23.243C13.123,54.792,12,56.26,12,58c0,2.206,1.794,4,4,4h32  c2.206,0,4-1.794,4-4c0-1.74-1.123-3.208-2.677-3.757C56.677,48.783,61,40.295,61,31C61,15.01,47.99,2,32,2z M44.45,53.6L44.303,54  H19.697l-0.148-0.4c-4.267-11.581-5.504-24.146-3.58-36.334l0.193-1.225c0.29-1.837,1.747-2.583,2.906-2.663  c1.17-0.079,2.704,0.457,3.245,2.234l1.729,5.679C24.172,21.712,24.56,22,25,22h14c0.44,0,0.828-0.288,0.957-0.709l1.729-5.679  c0.541-1.777,2.073-2.313,3.245-2.234c1.159,0.08,2.616,0.826,2.906,2.663l0.193,1.225C49.954,29.454,48.717,42.019,44.45,53.6z   M50,58c0,1.103-0.897,2-2,2H16c-1.103,0-2-0.897-2-2s0.897-2,2-2h1.574h28.852H48C49.103,56,50,56.897,50,58z M46.514,53.756  c4.227-11.753,5.44-24.464,3.491-36.803l-0.193-1.225c-0.442-2.805-2.701-4.204-4.742-4.346c-2.053-0.136-4.471,0.931-5.298,3.647  L38.259,20H25.741l-1.513-4.97c-0.827-2.717-3.252-3.786-5.298-3.647c-2.041,0.142-4.3,1.541-4.742,4.346l-0.193,1.225  c-1.949,12.339-0.737,25.05,3.491,36.803C9.658,48.762,5,40.314,5,31C5,16.112,17.112,4,32,4s27,12.112,27,27  C59,40.314,54.342,48.762,46.514,53.756z"/><path d="M32,44c2.243,0,4-1.317,4-3s-1.757-3-4-3s-4,1.317-4,3S29.757,44,32,44z M32,40c1.221,0,2,0.592,2,1s-0.779,1-2,1  s-2-0.592-2-1S30.779,40,32,40z"/><path d="M32,46c-3.252,0-6-1.832-6-4h-2c0,1.544,0.788,2.949,2.07,4.013C26.493,49.393,28.987,52,32,52s5.507-2.607,5.93-5.987  C39.212,44.949,40,43.544,40,42h-2C38,44.168,35.252,46,32,46z M28.509,47.39c0.771,0.282,1.608,0.475,2.491,0.558v1.875  C29.924,49.473,29.033,48.581,28.509,47.39z M33,49.823v-1.875c0.884-0.083,1.721-0.276,2.491-0.558  C34.967,48.581,34.076,49.473,33,49.823z"/><path d="M28,33c0-1.654-1.346-3-3-3s-3,1.346-3,3s1.346,3,3,3S28,34.654,28,33z M24,33c0-0.552,0.448-1,1-1s1,0.448,1,1  s-0.448,1-1,1S24,33.552,24,33z"/><path d="M39,30c-1.654,0-3,1.346-3,3s1.346,3,3,3s3-1.346,3-3S40.654,30,39,30z M39,34c-0.552,0-1-0.448-1-1s0.448-1,1-1  s1,0.448,1,1S39.552,34,39,34z"/><path d="M35.833,8.319c1.987,0.335,3.921,0.932,5.749,1.772l0.836-1.816c-1.988-0.915-4.091-1.563-6.251-1.929L35.833,8.319z"/><path d="M32,8c0.636,0,1.281,0.026,1.917,0.079l0.166-1.992C33.392,6.029,32.69,6,32,6V8z"/><text x="0" y="79" fill="#000000" font-size="5px" font-weight="bold" font-family="'Helvetica Neue', Helvetica, Arial-Unicode, Arial, Sans-serif">Created by Becris</text><text x="0" y="84" fill="#000000" font-size="5px" font-weight="bold" font-family="'Helvetica Neue', Helvetica, Arial-Unicode, Arial, Sans-serif">from the Noun Project</text></svg>